<svg height="28" enable-background="new 0 0 128 128" viewBox="0 0 128 128" xmlns="http://www.w3.org/2000/svg" xmlns:xlink="http://www.w3.org/1999/xlink"><linearGradient id="a" gradientUnits="userSpaceOnUse" x1="75.113" x2="58.637" y1="133.91" y2="98.483"><stop offset="0" stop-color="#ffa726"/><stop offset=".9967" stop-color="#ffcc80"/></linearGradient><linearGradient id="b" gradientUnits="userSpaceOnUse" x1="26.953" x2="-2.683" y1="46.589" y2="90.023"><stop offset="0" stop-color="#ba68c8"/><stop offset="1" stop-color="#9c27b0"/></linearGradient><linearGradient id="c" gradientTransform="matrix(.8993 .4372 -.4372 .8993 32.769 -21.994)" gradientUnits="userSpaceOnUse" x1=".3591" x2="117.25" y1="31.209" y2="31.209"><stop offset="0" stop-color="#42a5f5"/><stop offset=".9921" stop-color="#1e88e5"/></linearGradient><linearGradient id="d" gradientTransform="matrix(.8993 .4372 -.4372 .8993 32.769 -21.994)" gradientUnits="userSpaceOnUse" x1="19.267" x2="98.099" y1="31.252" y2="31.252"><stop offset=".2719" stop-color="#fff"/><stop offset="1" stop-color="#bbdefb"/></linearGradient><path d="m124 95.87s-12.75 8.44-68.5-2.37c-29.67-5.75-51.5 2.37-51.5 2.37v28.3h120z" fill="url(#a)"/><path d="m34.07 91.44v3c6.97 0 13.99.67 20.85 2 19.03 3.69 35.17 5.56 47.99 5.56 8.9 0 14.6-.92 18.08-1.84v21.01h-113.99v-23.12c4-1.18 13.86-3.61 27.07-3.61zm.01 0c-18.18 0-30.08 4.43-30.08 4.43v28.3h120v-28.3s-4.74 3.14-21.08 3.14c-10.46 0-25.66-1.29-47.42-5.5-7.76-1.51-14.99-2.07-21.42-2.07z" fill="#424242" opacity=".2"/><ellipse cx="65.71" cy="107.83" fill="#424242" opacity=".2" rx="42.04" ry="2.83"/><path d="m12.13 68.31v-.01z" fill="url(#b)"/><path d="m64.38 40.2 5.68 2.76-32 65.05-6.89-.02z" fill="#e0e0e0"/><path d="m65.3 42.87 2.08 1.01-30.56 62.12h-2.45zm-.92-2.67-33.21 67.78 6.89.02 32-65.04z" fill="#424242" opacity=".2"/><ellipse cx="62.32" cy="51.42" fill="#1976d2" rx="9.48" ry="16.81" transform="matrix(.4372 -.8993 .8993 .4372 -11.177 84.988)"/><path d="m84.25 7.42-.5-.24c-1.06-.51-2.33-.07-2.84.98l-2.18 4.49c-.51 1.06-.07 2.33.98 2.84l.5.24c1.06.51 2.33.07 2.84-.98l2.18-4.49c.52-1.06.08-2.33-.98-2.84z" fill="#bdbdbd"/><ellipse cx="106.38" cy="72.85" fill="#1565c0" rx="9.48" ry="9.59" transform="matrix(.4372 -.8993 .8993 .4372 -5.6463 136.67)"/><ellipse cx="18.38" cy="30.06" fill="#2196f3" rx="9.48" ry="9.46" transform="matrix(.4372 -.8993 .8993 .4372 -16.692 33.447)"/><path d="m81.79 11.66c-28.99-14.1-61.19-7.65-72.13 14.7l105.12 51.11c10.82-22.41-3.99-51.72-32.99-65.81z" fill="url(#c)"/><ellipse cx="87.6" cy="63.72" fill="#cfd8dc" rx="9.48" ry="11.31" transform="matrix(.4372 -.8993 .8993 .4372 -8.0038 114.64)"/><ellipse cx="37.05" cy="39.14" fill="#fafafa" rx="9.48" ry="11.31" transform="matrix(.4372 -.8993 .8993 .4372 -14.349 55.341)"/><path d="m81.65 11.68c-19.55-9.51-43.57-.43-54.99 22.95l70.9 34.47c11.33-23.42 3.64-47.91-15.91-57.42z" fill="url(#d)"/><ellipse cx="62.32" cy="51.42" fill="#1976d2" rx="9.48" ry="16.81" transform="matrix(.4372 -.8993 .8993 .4372 -11.177 84.988)"/><path d="m81.76 11.45c-8.33-4.05-23.86 10.7-34.76 33.07l30.22 14.69c10.86-22.39 12.87-43.71 4.54-47.76z" fill="#2196f3"/><path d="m50.6 7.21c9.88 0 20.16 2.45 29.75 7.08.02.01.04.02.07.03l.06.03c13.14 6.39 23.68 16.23 29.67 27.71 5.86 11.22 6.76 22.86 2.52 32.76-.03.06-.05.13-.08.2-.1.28-.19.51-.27.67l-.03.05-.12.21c0 .01-.01.01-.01.02-.01.02-.02.03-.03.05-1.13 2.05-3.31 3.33-5.69 3.33-1.01 0-1.99-.23-2.91-.67-3.15-1.53-4.57-5.22-3.22-8.4.62-1.47-.05-3.19-1.49-3.89-.42-.21-.87-.3-1.31-.3-1.05 0-2.07.55-2.62 1.53-1.04 1.85-3.22 2.96-5.82 2.96-1.45 0-2.95-.36-4.33-1.03-3.92-1.91-6.05-6.02-4.75-9.17.61-1.47-.09-3.18-1.52-3.87-.42-.21-.87-.3-1.31-.3-1.02 0-2.01.52-2.57 1.45-.77 1.27-2.86 2.03-5.59 2.03-2.94 0-6.32-.86-9.54-2.43-7.01-3.41-10.71-8.88-9.66-11.66.55-1.45-.14-3.1-1.53-3.78-.42-.21-.87-.3-1.31-.3-1.05 0-2.07.55-2.62 1.53-1.04 1.85-3.22 2.95-5.82 2.95-1.45 0-2.95-.36-4.33-1.03-3.93-1.91-6.06-6.02-4.76-9.18.61-1.47-.07-3.17-1.49-3.86-.42-.2-.87-.3-1.31-.3-1.06 0-2.09.56-2.63 1.55-1.14 2.07-3.31 3.36-5.67 3.36-.97 0-1.92-.22-2.8-.65-3.09-1.5-4.46-5.17-3.11-8.34.02-.04.04-.09.05-.13l.03-.06c.03-.06.05-.11.08-.18.09-.18.19-.36.3-.54.03-.05.06-.1.09-.15 6.57-12.07 20.63-19.28 37.63-19.28m0-3c-17.53 0-32.91 7.32-40.25 20.84-.17.28-.33.57-.48.87-.03.06-.05.12-.08.18-.04.09-.09.17-.13.25l.02.01c-1.96 4.61 0 10 4.56 12.21 1.33.65 2.73.95 4.12.95 3.36 0 6.59-1.8 8.3-4.91h.01l.02.01c-1.92 4.64.77 10.37 6.22 13.02 1.86.9 3.8 1.33 5.65 1.33 3.58 0 6.81-1.6 8.43-4.48l.01.03.02.01c-1.78 4.7 3.06 11.48 11.15 15.42 3.77 1.83 7.59 2.73 10.85 2.73 3.75 0 6.77-1.18 8.16-3.48l.06.02c-1.92 4.63.77 10.37 6.21 13.02 1.85.9 3.79 1.33 5.64 1.33 3.57 0 6.81-1.6 8.43-4.48l.03.01h.01c-1.96 4.61.06 10.02 4.67 12.27 1.36.66 2.8.98 4.22.98 3.38 0 6.61-1.79 8.32-4.88h.01c.02-.03.03-.07.04-.1.06-.11.13-.22.18-.33.17-.34.3-.69.42-1.03 9.51-22.21-5.27-50.56-33.64-64.35-.03-.01-.06-.03-.09-.04-.01 0-.02-.01-.02-.01-.01-.01-.03-.01-.05-.02-10.29-4.99-21.01-7.38-31.02-7.38z" fill="#424242" opacity=".2"/></svg>