<svg fill="none" height="28" viewBox="0 0 14 14" width="14" xmlns="http://www.w3.org/2000/svg"><g stroke="#4147d5" stroke-linejoin="round" stroke-width="1.5"><path d="m6.3912 12.949c.39605-1.9325.57365-3.29622.60878-4.94235" stroke-linecap="round"/><path d="m3.71322 3.54136c.02222.04244.04532.08633.06926.13153-.06043-.03168-.11865-.06193-.17436-.09065-.44932-.2317-.97631-.2412-1.44252-.04569-1.207838.50653-1.481969 2.09543-.51369 2.97741l.39846.36294-.40344.36748c-.965956.87986-.692482 2.46495.51246 2.97022.4697.197 1.00097.1853 1.45223-.0509.88147-.46145 2.38658-1.30409 3.38838-2.16169 1.0018.8576 2.50691 1.70024 3.3884 2.16169.4512.2362.9825.2479 1.4522.0509 1.205-.50527 1.4784-2.09036.5125-2.97022l-.4035-.36748.3985-.36294c.9683-.88198.6941-2.47088-.5137-2.97741-.4662-.19551-.9932-.18601-1.4425.04569-.0527.02718-.1077.05573-.1647.08556.0233-.04465.0458-.088.0674-.12994.2317-.44932.2412-.97631.0457-1.44252-.5065-1.207836-2.09539-1.481968-2.97737-.51369l-.36294.39846-.36749-.40344c-.87985-.965955-2.46494-.692482-2.97025.51246-.19698.4697-.18524 1.00098.05097 1.45223z" fill="#d7e0ff"/><g stroke-linecap="round"><path d="m3.76565 3.65923s.9081.61102 1.80662 1.42597"/><path d="m10.2419 3.65923s-.90809.61102-1.8066 1.42597"/></g></g></svg>