<svg height="39" viewBox="0 0 72 72" xmlns="http://www.w3.org/2000/svg"><path d="m41.5164 64.8245v-49.8292c0-4.0273-2.9398-7.2921-6.5664-7.2921s-6.5664 3.2648-6.5664 7.2921v49.8293" fill="#b1cc33"/><path d="m45.1603 54.0707h8.3573c2.6374 0 4.7756-2.1381 4.7756-4.7756v-17.7031c0-2.4942-1.8236-4.7216-4.3065-4.9584-2.8483-.2716-5.2447 1.9609-5.2447 4.7531v6.3643c0 3.7382.1565 4.7691-3.5817 4.7691h-3.3913l.0793 11.5507h3.312" fill="#5c9e31"/><path d="m25.4062 45.7384-7.0128-.0689c-2.7949 0-7.1743-4.9427-7.1743-7.5801l.2054-11.2839c0-2.4942 2.5453-3.8131 5.1765-4.0499 3.0184-.2716 3.399.6183 3.399 3.4105l1.6106 3.2526c0 3.7382-.1659 4.7691 3.7956 4.7691h3.5938l-.084 11.5507h-3.5098" fill="#5c9e31"/><g style="fill:none;stroke:#000;stroke-linecap:round;stroke-linejoin:round;stroke-miterlimit:10;stroke-width:2"><path d="m41.5164 63.7969v-48.9497c0-3.9562-2.9398-7.1634-6.5664-7.1634s-6.5664 3.2072-6.5664 7.1634v48.9497"/><path d="m24.5244 44.6946h-6.3643c-3.7382 0-6.7685-3.0303-6.7685-6.7686v-11.1398c0-2.7923 2.3964-5.0247 5.2447-4.7531 2.4829.2367 4.3065 2.4642 4.3065 4.9584v4.7678c0 1.869 1.5152 3.3842 3.3842 3.3842h.1975"/><path d="m45.2885 53.0519h8.3573c2.6374 0 4.7756-2.1381 4.7756-4.7756v-17.7032c0-2.4942-1.8236-4.7216-4.3065-4.9584-2.8483-.2716-5.2447 1.9609-5.2447 4.7531v6.3643c0 3.7382.1565 6.7685-3.5817 6.7685"/></g><circle cx="37.3378" cy="20.2197" r="1"/><circle cx="15" cy="26.9065" r="1"/><circle cx="54.8584" cy="39.3221" r="1"/></svg>