<svg height="30" enable-background="new 0 0 512 512" viewBox="0 0 512 512" xmlns="http://www.w3.org/2000/svg"><path d="m65.626 275.915c24.73-40.567 95.993-45.316 95.993-45.316v.001s59.854 38.435 61.967 85.899c2.376 53.333-29.429 108.345-69.039 142.152 6.61-5.615 18.958-16.081-.312.293-4.655 3.934-3.429 2.886-.512.407-11.274 9.489-32.144 22.034-46.151 30.076-7.985 4.585-18.175 2.029-23.042-5.787-8.621-13.846-21.22-35.069-26.552-48.888 1.361 3.578 1.93 5.087-.253-.604-8.99-23.635-3.217-8.513-.132-.407-18.408-48.714-19.756-112.242 8.033-157.826zm297.505 88.144c-10.768-4.832-30.875-13.827.519.265 7.576 3.376 5.577 2.471.824.338 18.428 8.167 50.973 16.465 72.592 21.493 12.204 2.838 24.468-4.508 27.74-16.603 5.74-21.217 13.751-53.369 15.468-73.349-.422 5.192-.593 7.38.101-.885 2.786-34.299.975-12.346.018-.582 5.583-70.645-16.747-154.184-70.353-203.218-47.705-43.639-142.283-23.028-142.283-23.028l-.001-.001s-64.003 73.142-48.764 135.975c17.124 70.6 79.551 130.434 144.139 159.595z" fill="#ff6f1f"/><path d="m197.335 356.174c-1.342.793-2.815 1.171-4.269 1.171-2.874 0-5.673-1.475-7.241-4.128l-32.904-55.658-15.782 61.568 25.186 42.602c2.362 3.995 1.038 9.148-2.957 11.51-1.342.793-2.815 1.171-4.269 1.171-2.874 0-5.673-1.475-7.241-4.128l-16.624-28.119-15.836 61.78c-.973 3.795-4.388 6.318-8.134 6.318-.69 0-1.393-.086-2.092-.266-4.496-1.152-7.206-5.73-6.053-10.227l15.856-61.858-28.205 16.676c-1.342.793-2.815 1.171-4.269 1.171-2.874 0-5.673-1.475-7.241-4.128-2.362-3.995-1.038-9.147 2.957-11.51l42.657-25.218 15.764-61.499-55.627 32.885c-1.342.793-2.815 1.171-4.269 1.171-2.874 0-5.673-1.475-7.241-4.128-2.362-3.995-1.038-9.148 2.957-11.51l70.078-41.428 20.175-78.707c1.153-4.495 5.732-7.203 10.226-6.053 4.496 1.152 7.206 5.73 6.053 10.226l-20.165 78.666 41.466 70.141c2.363 3.994 1.039 9.147-2.956 11.509zm235.77-123.697-65.229-16.759-44.058-74.429 85.219 21.895c.955.245 1.912.362 2.854.362 5.095 0 9.741-3.43 11.067-8.592 1.571-6.116-2.113-12.349-8.229-13.92l-107.394-27.592-56.292-95.098c-3.217-5.434-10.231-7.233-15.665-4.015-5.435 3.217-7.232 10.23-4.015 15.665l56.322 95.149-27.567 107.296c-1.571 6.117 2.113 12.349 8.229 13.921.955.245 1.912.362 2.854.362 5.095 0 9.741-3.43 11.067-8.592l21.883-85.171 44.009 74.347-16.781 65.313c-1.571 6.116 2.113 12.349 8.229 13.921.955.245 1.912.362 2.854.362 5.095 0 9.741-3.43 11.067-8.592l11.096-43.188 44.266 74.781c2.135 3.607 5.942 5.612 9.851 5.612 1.98 0 3.986-.515 5.813-1.597 5.435-3.217 7.232-10.23 4.016-15.664l-44.21-74.687 43.054 11.062c.955.245 1.912.362 2.854.362 5.095 0 9.741-3.43 11.067-8.592 1.57-6.118-2.114-12.35-8.231-13.922z" fill="#f4580b"/></svg>