<svg height="28" viewBox="0 0 64 64" xmlns="http://www.w3.org/2000/svg"><g fill="#ffca28"><path d="m20.5 59.7 7-7.2c-2.5-.5-4.8-1.5-6.9-2.9zm23-55.4-7 7.2c2.5.5 4.8 1.5 6.9 2.9zm-32 32.2-7.2 7 10.1-.1c-1.4-2.1-2.4-4.4-2.9-6.9m41-9 7.2-7-10.1.1c1.4 2.1 2.4 4.4 2.9 6.9m-38.1-6.9-10.1-.1 7.2 7c.5-2.5 1.5-4.8 2.9-6.9m35.2 22.8 10.1.1-7.2-7c-.5 2.5-1.5 4.8-2.9 6.9m-22.1-31.9-7-7.2.1 10.1c2.1-1.4 4.4-2.4 6.9-2.9m9 41 7 7.2-.1-10.1c-2.1 1.4-4.4 2.4-6.9 2.9m-21.7-8.5-4 9.3 9.3-4c-2.1-1.5-3.9-3.3-5.3-5.3m34.4-24 4-9.3-9.3 4c2.1 1.5 3.9 3.3 5.3 5.3m-38.2 12c0-1.3.1-2.5.4-3.7l-9.4 3.7 9.4 3.7c-.3-1.2-.4-2.4-.4-3.7m51 0-9.4-3.7c.2 1.2.4 2.5.4 3.7 0 1.3-.1 2.5-.4 3.7zm-42-17.2-9.3-4 4 9.3c1.5-2.1 3.3-3.9 5.3-5.3m24 34.4 9.3 4-4-9.3c-1.5 2.1-3.3 3.9-5.3 5.3m-8.3-37.8-3.7-9.4-3.7 9.4c1.2-.2 2.5-.4 3.7-.4 1.3 0 2.5.1 3.7.4m-7.4 41.2 3.7 9.4 3.7-9.4c-1.2.3-2.4.4-3.7.4s-2.5-.1-3.7-.4"/><path d="m32 13c-10.5 0-19 8.5-19 19s8.5 19 19 19 19-8.5 19-19-8.5-19-19-19"/></g><path d="m40.7 38.2c-1.6 2.6-4.7 4.8-8.7 4.8s-7.2-2.3-8.7-4.8c-.4-.7.1-1.4.8-1 5.1 3.6 10.8 3.6 15.9 0 .6-.4 1.1.4.7 1" fill="#ef4d3c"/><g transform="matrix(.6 0 0 .6 12.75 4.8)"><path d="m36.1 33.3c-2.4 1.2-5.9 1.2-8.2 0-2.5-1.3-5.6-2.2-9.3-2.5-3.6-.3-11.2-.3-15 1.1-.4.2-.9.4-1.3.6-.2.1-.3.1-.3.6v.6c0 1.1-.1.7.6 1.1 1.5.9 2.4 3.2 2.8 6.4.6 4.6 2.9 7.5 6.5 8.9 3.3 1.3 7.1 1.2 10.4-.1 1.8-.7 3.4-1.9 4.7-3.8 2.2-3.3 1.6-5.4 2.7-8.3 1-2.5 3.8-2.5 4.8 0 1.1 2.9.5 4.9 2.7 8.3 1.3 1.9 2.9 3.1 4.7 3.8 3.3 1.4 7 1.4 10.4.1 3.6-1.4 5.8-4.3 6.5-8.9.4-3.2 1.3-5.5 2.8-6.4.8-.5.6 0 .6-1.1v-.6c0-.4 0-.5-.3-.7-.4-.2-.8-.4-1.3-.6-3.8-1.4-11.4-1.4-15-1.1-3.9.4-7 1.3-9.5 2.6" fill="#363b3d"/><path d="m26.2 35.1c-.8-.6-2.4-1.1-4.2-1.4-1-.2-2.2-.3-3.4-.4-2.7-.2-5.6-.2-7.5.2-1.2.2-2.1.5-2.4.9-1.4 1.6-1.1 6.1.3 9.3.4.8.9 1.6 1.4 2.2.9 1 2.1 1.6 3.5 2 .9.3 1.8.4 2.8.5 1.6.1 3.2-.1 4.7-.5.3-.1.5-.2.7-.3 4.3-1.9 5.4-9.1 4.7-11.7-.1-.3-.3-.6-.6-.8m29.5-.6c-.1-.1-.1-.2-.2-.3-.6-.8-3.5-1.1-6.7-1.1-1.2 0-2.4.1-3.6.2-1.3.1-2.6.3-3.7.5-2.2.5-3.8 1.2-4 2.1-.4 1.6-.2 4.8 1 7.6.5 1.1 1.1 2.2 2 3 .7.7 1.5 1.2 2.5 1.4.2 0 .3.1.5.1 3 .7 6.5.5 9-1 .5-.3 1-.7 1.5-1.1 2.3-2.6 3.2-9 1.7-11.4" fill="#5f6566"/></g></svg>